<mxfile host="app.diagrams.net" modified="2024-04-11T14:40:07.034Z" agent="Mozilla/5.0 (Windows NT 10.0; Win64; x64) AppleWebKit/537.36 (KHTML, like Gecko) Chrome/123.0.0.0 Safari/537.36" etag="dt7vLVK8QkOP41OK5em0" version="24.2.3" type="device">
  <diagram name="Page-1" id="929967ad-93f9-6ef4-fab6-5d389245f69c">
    <mxGraphModel dx="2390" dy="1287" grid="1" gridSize="10" guides="1" tooltips="1" connect="1" arrows="1" fold="1" page="1" pageScale="1.5" pageWidth="1169" pageHeight="826" background="none" math="0" shadow="0">
      <root>
        <mxCell id="0" style=";html=1;" />
        <mxCell id="1" style=";html=1;" parent="0" />
        <mxCell id="1672d66443f91eb5-23" value="GaÃ¡l Botond - NHF" style="text;strokeColor=none;fillColor=none;html=1;fontSize=24;fontStyle=1;verticalAlign=middle;align=center;" parent="1" vertex="1">
          <mxGeometry x="120" y="40" width="1510" height="40" as="geometry" />
        </mxCell>
        <mxCell id="ww80NGI2TLnyyEXgtIBK-16" value="&lt;i&gt;StringBase&lt;/i&gt;" style="swimlane;fontStyle=1;align=center;verticalAlign=top;childLayout=stackLayout;horizontal=1;startSize=26;horizontalStack=0;resizeParent=1;resizeParentMax=0;resizeLast=0;collapsible=1;marginBottom=0;whiteSpace=wrap;html=1;" parent="1" vertex="1">
          <mxGeometry x="1000" y="30" width="340" height="390" as="geometry">
            <mxRectangle x="540" y="720" width="100" height="30" as="alternateBounds" />
          </mxGeometry>
        </mxCell>
        <mxCell id="ww80NGI2TLnyyEXgtIBK-17" value="# len: size_t&lt;div&gt;# str: char*&lt;/div&gt;" style="text;strokeColor=none;fillColor=none;align=left;verticalAlign=top;spacingLeft=4;spacingRight=4;overflow=hidden;rotatable=0;points=[[0,0.5],[1,0.5]];portConstraint=eastwest;whiteSpace=wrap;html=1;" parent="ww80NGI2TLnyyEXgtIBK-16" vertex="1">
          <mxGeometry y="26" width="340" height="34" as="geometry" />
        </mxCell>
        <mxCell id="ww80NGI2TLnyyEXgtIBK-18" value="" style="line;strokeWidth=1;fillColor=none;align=left;verticalAlign=middle;spacingTop=-1;spacingLeft=3;spacingRight=3;rotatable=0;labelPosition=right;points=[];portConstraint=eastwest;strokeColor=inherit;" parent="ww80NGI2TLnyyEXgtIBK-16" vertex="1">
          <mxGeometry y="60" width="340" height="8" as="geometry" />
        </mxCell>
        <mxCell id="ww80NGI2TLnyyEXgtIBK-19" value="+ get_len(): size_t &amp;lt;&amp;lt;const&amp;gt;&amp;gt;&amp;nbsp;&lt;div&gt;+ c_str(): const char* &amp;lt;&amp;lt;const&amp;gt;&amp;gt;&lt;/div&gt;&lt;div&gt;+ ~StringBase() &amp;lt;&amp;lt;virtual&amp;gt;&amp;gt;&lt;/div&gt;&lt;div&gt;+ StringBase(const char* str = &quot;&quot;)&lt;/div&gt;&lt;div&gt;+ StringBase(const char c)&lt;/div&gt;&lt;div&gt;+ StringBase(const StringBase&amp;amp; other)&lt;/div&gt;&lt;div&gt;+ operator[](const size_t idx): char&amp;amp;&lt;/div&gt;&lt;div&gt;+ operator[](const size_t idx): const char&amp;amp; &amp;lt;&amp;lt;const&amp;gt;&amp;gt;&lt;/div&gt;&lt;div&gt;&lt;i&gt;+ operator=(const char rhs): StringBase&amp;amp; = 0 &amp;lt;&amp;lt;virtual&amp;gt;&amp;gt;&lt;/i&gt;&lt;/div&gt;&lt;div&gt;&lt;i&gt;+ operator=(const char rhs*): StringBase&amp;amp; = 0 &amp;lt;&amp;lt;virtual&amp;gt;&amp;gt;&lt;br&gt;&lt;/i&gt;&lt;/div&gt;&lt;div&gt;&lt;i&gt;+ operator=(const StringBase&amp;amp;): StringBase&amp;amp; = 0 &amp;lt;&amp;lt;virtual&amp;gt;&amp;gt;&lt;/i&gt;&lt;br&gt;&lt;/div&gt;&lt;div&gt;+ operator==(const char c): bool &amp;lt;&amp;lt;const&amp;gt;&amp;gt;&lt;/div&gt;&lt;div&gt;+ operator!=(const char c): bool &amp;lt;&amp;lt;const&amp;gt;&amp;gt;&lt;br&gt;&lt;/div&gt;&lt;div&gt;+ operator==(const char* rhs): bool &amp;lt;&amp;lt;const&amp;gt;&amp;gt;&lt;br&gt;&lt;/div&gt;&lt;div&gt;+ operator!=(const char* rhs): bool &amp;lt;&amp;lt;const&amp;gt;&amp;gt;&lt;br&gt;&lt;/div&gt;&lt;div&gt;&lt;div&gt;+ operator==(const StringBase&amp;amp; rhs): bool &amp;lt;&amp;lt;const&amp;gt;&amp;gt;&lt;br&gt;&lt;/div&gt;&lt;div&gt;+ operator!=(const StringBase&amp;amp; rhs): bool &amp;lt;&amp;lt;const&amp;gt;&amp;gt;&lt;/div&gt;&lt;/div&gt;&lt;div&gt;+ begin(): iterator&lt;/div&gt;&lt;div&gt;&lt;span style=&quot;background-color: initial;&quot;&gt;+ end(): iterator&lt;/span&gt;&lt;/div&gt;&lt;div&gt;&lt;span style=&quot;background-color: initial;&quot;&gt;+ begin(): const_iterator &amp;lt;&amp;lt;const&amp;gt;&amp;gt;&lt;/span&gt;&lt;/div&gt;&lt;div&gt;&lt;span style=&quot;background-color: initial;&quot;&gt;+ end(): const_iterator &amp;lt;&amp;lt;const&amp;gt;&amp;gt;&lt;/span&gt;&lt;/div&gt;" style="text;strokeColor=none;fillColor=none;align=left;verticalAlign=top;spacingLeft=4;spacingRight=4;overflow=hidden;rotatable=0;points=[[0,0.5],[1,0.5]];portConstraint=eastwest;whiteSpace=wrap;html=1;" parent="ww80NGI2TLnyyEXgtIBK-16" vertex="1">
          <mxGeometry y="68" width="340" height="322" as="geometry" />
        </mxCell>
        <mxCell id="ww80NGI2TLnyyEXgtIBK-21" value="StringBase::iterator" style="swimlane;fontStyle=1;align=center;verticalAlign=top;childLayout=stackLayout;horizontal=1;startSize=26;horizontalStack=0;resizeParent=1;resizeParentMax=0;resizeLast=0;collapsible=1;marginBottom=0;whiteSpace=wrap;html=1;" parent="1" vertex="1">
          <mxGeometry x="1400" y="30" width="280" height="180" as="geometry" />
        </mxCell>
        <mxCell id="ww80NGI2TLnyyEXgtIBK-22" value="- ptr: char*" style="text;strokeColor=none;fillColor=none;align=left;verticalAlign=top;spacingLeft=4;spacingRight=4;overflow=hidden;rotatable=0;points=[[0,0.5],[1,0.5]];portConstraint=eastwest;whiteSpace=wrap;html=1;" parent="ww80NGI2TLnyyEXgtIBK-21" vertex="1">
          <mxGeometry y="26" width="280" height="26" as="geometry" />
        </mxCell>
        <mxCell id="ww80NGI2TLnyyEXgtIBK-23" value="" style="line;strokeWidth=1;fillColor=none;align=left;verticalAlign=middle;spacingTop=-1;spacingLeft=3;spacingRight=3;rotatable=0;labelPosition=right;points=[];portConstraint=eastwest;strokeColor=inherit;" parent="ww80NGI2TLnyyEXgtIBK-21" vertex="1">
          <mxGeometry y="52" width="280" height="8" as="geometry" />
        </mxCell>
        <mxCell id="ww80NGI2TLnyyEXgtIBK-24" value="+ iterator(char* ptr = NULL)&lt;div&gt;+ operator++(): iterator&amp;amp;&lt;/div&gt;&lt;div&gt;+ operator++(int): iterator&lt;/div&gt;&lt;div&gt;+ operator*(): char&amp;amp; &amp;lt;&amp;lt;const&amp;gt;&amp;gt;&lt;/div&gt;&lt;div&gt;+ operator-&amp;gt;(): char* &amp;lt;&amp;lt;const&amp;gt;&amp;gt;&lt;/div&gt;&lt;div&gt;+ operator==(const iterator&amp;amp; rhs): bool &amp;lt;&amp;lt;const&amp;gt;&amp;gt;&lt;/div&gt;&lt;div&gt;+ operator!=(const iterator&amp;amp; rhs): bool &amp;lt;&amp;lt;const&amp;gt;&amp;gt;&lt;/div&gt;&lt;div&gt;&lt;br&gt;&lt;/div&gt;" style="text;strokeColor=none;fillColor=none;align=left;verticalAlign=top;spacingLeft=4;spacingRight=4;overflow=hidden;rotatable=0;points=[[0,0.5],[1,0.5]];portConstraint=eastwest;whiteSpace=wrap;html=1;" parent="ww80NGI2TLnyyEXgtIBK-21" vertex="1">
          <mxGeometry y="60" width="280" height="120" as="geometry" />
        </mxCell>
        <mxCell id="ww80NGI2TLnyyEXgtIBK-27" value="StringBase::const_iterator" style="swimlane;fontStyle=1;align=center;verticalAlign=top;childLayout=stackLayout;horizontal=1;startSize=26;horizontalStack=0;resizeParent=1;resizeParentMax=0;resizeLast=0;collapsible=1;marginBottom=0;whiteSpace=wrap;html=1;" parent="1" vertex="1">
          <mxGeometry x="1390" y="260" width="290" height="180" as="geometry" />
        </mxCell>
        <mxCell id="ww80NGI2TLnyyEXgtIBK-29" value="- ptr: char*" style="text;strokeColor=none;fillColor=none;align=left;verticalAlign=top;spacingLeft=4;spacingRight=4;overflow=hidden;rotatable=0;points=[[0,0.5],[1,0.5]];portConstraint=eastwest;whiteSpace=wrap;html=1;" parent="ww80NGI2TLnyyEXgtIBK-27" vertex="1">
          <mxGeometry y="26" width="290" height="26" as="geometry" />
        </mxCell>
        <mxCell id="ww80NGI2TLnyyEXgtIBK-30" value="" style="line;strokeWidth=1;fillColor=none;align=left;verticalAlign=middle;spacingTop=-1;spacingLeft=3;spacingRight=3;rotatable=0;labelPosition=right;points=[];portConstraint=eastwest;strokeColor=inherit;" parent="ww80NGI2TLnyyEXgtIBK-27" vertex="1">
          <mxGeometry y="52" width="290" height="8" as="geometry" />
        </mxCell>
        <mxCell id="ww80NGI2TLnyyEXgtIBK-31" value="+ const_iterator(char* ptr = NULL)&lt;div&gt;+ const_operator++(): iterator&amp;amp;&lt;/div&gt;&lt;div&gt;+ const_operator++(int): iterator&lt;/div&gt;&lt;div&gt;+ operator*(): const char&amp;amp; &amp;lt;&amp;lt;const&amp;gt;&amp;gt;&lt;/div&gt;&lt;div&gt;+ operator-&amp;gt;(): const char* &amp;lt;&amp;lt;const&amp;gt;&amp;gt;&lt;/div&gt;&lt;div&gt;+ operator==(const iterator&amp;amp; rhs): bool &amp;lt;&amp;lt;const&amp;gt;&amp;gt;&lt;/div&gt;&lt;div&gt;+ operator!=(const iterator&amp;amp; rhs): bool &amp;lt;&amp;lt;const&amp;gt;&amp;gt;&lt;/div&gt;&lt;div&gt;&lt;br&gt;&lt;/div&gt;" style="text;strokeColor=none;fillColor=none;align=left;verticalAlign=top;spacingLeft=4;spacingRight=4;overflow=hidden;rotatable=0;points=[[0,0.5],[1,0.5]];portConstraint=eastwest;whiteSpace=wrap;html=1;" parent="ww80NGI2TLnyyEXgtIBK-27" vertex="1">
          <mxGeometry y="60" width="290" height="120" as="geometry" />
        </mxCell>
        <mxCell id="ww80NGI2TLnyyEXgtIBK-32" value="&lt;p style=&quot;margin:0px;margin-top:4px;text-align:center;&quot;&gt;&lt;b&gt;String&lt;/b&gt;&lt;/p&gt;&lt;hr size=&quot;1&quot; style=&quot;border-style:solid;&quot;&gt;&lt;p style=&quot;margin:0px;margin-left:4px;&quot;&gt;&lt;/p&gt;&lt;p style=&quot;margin:0px;margin-left:4px;&quot;&gt;+ String(const char* str = &quot;&quot;)&lt;/p&gt;&lt;p style=&quot;margin:0px;margin-left:4px;&quot;&gt;+ String(const char&amp;nbsp; c)&lt;/p&gt;&lt;p style=&quot;margin:0px;margin-left:4px;&quot;&gt;+ String(const StringBase&amp;amp; other)&lt;/p&gt;&lt;p style=&quot;margin:0px;margin-left:4px;&quot;&gt;+ ~String()&lt;/p&gt;&lt;p style=&quot;margin:0px;margin-left:4px;&quot;&gt;+ operator=(const char rhs): String&amp;amp;&lt;/p&gt;&lt;p style=&quot;margin:0px;margin-left:4px;&quot;&gt;+ operator=(const char* rhs): String&amp;amp;&lt;br&gt;&lt;/p&gt;&lt;p style=&quot;margin:0px;margin-left:4px;&quot;&gt;+ operator=(const StringBase&amp;amp; rhs): String&amp;amp;&lt;br&gt;&lt;/p&gt;&lt;p style=&quot;margin:0px;margin-left:4px;&quot;&gt;+ operator=(const String&amp;amp; rhs): String&amp;amp;&lt;/p&gt;&lt;p style=&quot;margin:0px;margin-left:4px;&quot;&gt;+ operator+(const String&amp;amp; rhs): String &amp;lt;&amp;lt;const&amp;gt;&amp;gt;&lt;/p&gt;&lt;p style=&quot;margin:0px;margin-left:4px;&quot;&gt;+ operator+=(const String&amp;amp; rhs): String&amp;amp;&lt;/p&gt;" style="verticalAlign=top;align=left;overflow=fill;html=1;whiteSpace=wrap;" parent="1" vertex="1">
          <mxGeometry x="1410" y="550" width="270" height="180" as="geometry" />
        </mxCell>
        <mxCell id="ww80NGI2TLnyyEXgtIBK-33" value="" style="endArrow=block;dashed=1;endFill=0;endSize=12;html=1;rounded=0;" parent="1" source="ww80NGI2TLnyyEXgtIBK-32" target="ww80NGI2TLnyyEXgtIBK-19" edge="1">
          <mxGeometry width="160" relative="1" as="geometry">
            <mxPoint x="970" y="830" as="sourcePoint" />
            <mxPoint x="1130" y="830" as="targetPoint" />
          </mxGeometry>
        </mxCell>
        <mxCell id="ww80NGI2TLnyyEXgtIBK-28" value="" style="endArrow=open;startArrow=circlePlus;endFill=0;startFill=0;endSize=8;html=1;rounded=0;" parent="1" source="ww80NGI2TLnyyEXgtIBK-31" target="ww80NGI2TLnyyEXgtIBK-19" edge="1">
          <mxGeometry width="160" relative="1" as="geometry">
            <mxPoint x="1400" y="751.84" as="sourcePoint" />
            <mxPoint x="1270" y="709.99625" as="targetPoint" />
          </mxGeometry>
        </mxCell>
        <mxCell id="ww80NGI2TLnyyEXgtIBK-25" value="" style="endArrow=open;startArrow=circlePlus;endFill=0;startFill=0;endSize=8;html=1;rounded=0;" parent="1" source="ww80NGI2TLnyyEXgtIBK-24" target="ww80NGI2TLnyyEXgtIBK-19" edge="1">
          <mxGeometry width="160" relative="1" as="geometry">
            <mxPoint x="1430" y="462" as="sourcePoint" />
            <mxPoint x="1350" y="560" as="targetPoint" />
          </mxGeometry>
        </mxCell>
        <mxCell id="ww80NGI2TLnyyEXgtIBK-35" value="EncryptedString" style="swimlane;fontStyle=1;align=center;verticalAlign=top;childLayout=stackLayout;horizontal=1;startSize=26;horizontalStack=0;resizeParent=1;resizeParentMax=0;resizeLast=0;collapsible=1;marginBottom=0;whiteSpace=wrap;html=1;" parent="1" vertex="1">
          <mxGeometry x="870" y="520" width="450" height="350" as="geometry" />
        </mxCell>
        <mxCell id="ww80NGI2TLnyyEXgtIBK-36" value="- pEncryptor: Encryptor*&lt;div&gt;- password: String&lt;/div&gt;" style="text;strokeColor=none;fillColor=none;align=left;verticalAlign=top;spacingLeft=4;spacingRight=4;overflow=hidden;rotatable=0;points=[[0,0.5],[1,0.5]];portConstraint=eastwest;whiteSpace=wrap;html=1;" parent="ww80NGI2TLnyyEXgtIBK-35" vertex="1">
          <mxGeometry y="26" width="450" height="44" as="geometry" />
        </mxCell>
        <mxCell id="ww80NGI2TLnyyEXgtIBK-37" value="" style="line;strokeWidth=1;fillColor=none;align=left;verticalAlign=middle;spacingTop=-1;spacingLeft=3;spacingRight=3;rotatable=0;labelPosition=right;points=[];portConstraint=eastwest;strokeColor=inherit;" parent="ww80NGI2TLnyyEXgtIBK-35" vertex="1">
          <mxGeometry y="70" width="450" height="8" as="geometry" />
        </mxCell>
        <mxCell id="ww80NGI2TLnyyEXgtIBK-38" value="- checkPw(const String&amp;amp; pw): void &amp;lt;&amp;lt;const&amp;gt;&amp;gt;&lt;div&gt;- set_str(const StringBase&amp;amp; new_str): void&lt;/div&gt;&lt;div&gt;+ EncryptedString(const Encryptor&amp;amp; encr, const String&amp;amp; pw, const char* str = &quot;&quot;)&lt;/div&gt;&lt;div&gt;&lt;div&gt;+ EncryptedString(const Encryptor&amp;amp; encr, const String&amp;amp; pw, const char c)&lt;/div&gt;&lt;/div&gt;&lt;div&gt;&lt;div&gt;+ EncryptedString(const Encryptor&amp;amp; encr, const String&amp;amp; pw, const String&amp;amp; str)&lt;/div&gt;&lt;/div&gt;&lt;div&gt;+ EncryptedString(Encryptor* pEncr, const String&amp;amp; pw, const char* str = &quot;&quot;)&lt;/div&gt;&lt;div&gt;+ EncryptedString(Encryptor* pEncr, const String&amp;amp; pw, const char c)&lt;br&gt;&lt;/div&gt;&lt;div&gt;+ EncryptedString(Encryptor* pEncr, const String&amp;amp; pw, const String&amp;amp; str)&lt;br&gt;&lt;/div&gt;&lt;div&gt;+ EncryptedString(const EncryptedString&amp;amp; other)&lt;/div&gt;&lt;div&gt;+ operator=(const StringBase&amp;amp; rhs): EncryptedString&amp;amp;&lt;/div&gt;&lt;div&gt;+ operator=(const char* rhs): EncryptedString&amp;amp;&lt;/div&gt;&lt;div&gt;+ operator=(const char c): EncryptedString&amp;amp;&lt;/div&gt;&lt;div&gt;+ operator=(const EncryptedString&amp;amp; rhs): EncryptedString&amp;amp;&lt;/div&gt;&lt;div&gt;+ operator+=(const String&amp;amp; rhs): EncryptedString&amp;amp;&lt;/div&gt;&lt;div&gt;+ set_pw(const String&amp;amp; new_pw, const String&amp;amp; old_pw): void&lt;/div&gt;&lt;div&gt;+ decode(const String&amp;amp; pw): String &amp;lt;&amp;lt;const&amp;gt;&amp;gt;&lt;/div&gt;&lt;div&gt;+ setEncryptor(const Encryptor&amp;amp; enc, const String&amp;amp; pw)&lt;/div&gt;&lt;div&gt;+ setEncryptor(Encryptor* pEnc, const String&amp;amp; pw)&lt;/div&gt;&lt;div&gt;&lt;br&gt;&lt;/div&gt;&lt;div&gt;&lt;br&gt;&lt;/div&gt;" style="text;strokeColor=none;fillColor=none;align=left;verticalAlign=top;spacingLeft=4;spacingRight=4;overflow=hidden;rotatable=0;points=[[0,0.5],[1,0.5]];portConstraint=eastwest;whiteSpace=wrap;html=1;" parent="ww80NGI2TLnyyEXgtIBK-35" vertex="1">
          <mxGeometry y="78" width="450" height="272" as="geometry" />
        </mxCell>
        <mxCell id="ww80NGI2TLnyyEXgtIBK-39" value="" style="endArrow=block;dashed=1;endFill=0;endSize=12;html=1;rounded=0;" parent="1" source="ww80NGI2TLnyyEXgtIBK-35" target="ww80NGI2TLnyyEXgtIBK-19" edge="1">
          <mxGeometry width="160" relative="1" as="geometry">
            <mxPoint x="1050" y="810" as="sourcePoint" />
            <mxPoint x="1210" y="810" as="targetPoint" />
          </mxGeometry>
        </mxCell>
        <mxCell id="ww80NGI2TLnyyEXgtIBK-40" value="&lt;i&gt;Encryptor&lt;/i&gt;" style="swimlane;fontStyle=1;align=center;verticalAlign=top;childLayout=stackLayout;horizontal=1;startSize=26;horizontalStack=0;resizeParent=1;resizeParentMax=0;resizeLast=0;collapsible=1;marginBottom=0;whiteSpace=wrap;html=1;" parent="1" vertex="1">
          <mxGeometry x="470" y="30" width="280" height="230" as="geometry" />
        </mxCell>
        <mxCell id="ww80NGI2TLnyyEXgtIBK-41" value="&lt;u&gt;# first_char: char&lt;/u&gt;&lt;div&gt;&lt;u&gt;# last_char: char&lt;/u&gt;&lt;/div&gt;&lt;div&gt;&lt;u&gt;# range: size_t&lt;/u&gt;&lt;/div&gt;&lt;div&gt;shiftIntoScope(int c): char &amp;lt;&amp;lt;const&amp;gt;&amp;gt;&lt;/div&gt;&lt;div&gt;isValidInput(int c): bool &amp;lt;&amp;lt;const&amp;gt;&amp;gt;&lt;/div&gt;" style="text;strokeColor=none;fillColor=none;align=left;verticalAlign=top;spacingLeft=4;spacingRight=4;overflow=hidden;rotatable=0;points=[[0,0.5],[1,0.5]];portConstraint=eastwest;whiteSpace=wrap;html=1;" parent="ww80NGI2TLnyyEXgtIBK-40" vertex="1">
          <mxGeometry y="26" width="280" height="84" as="geometry" />
        </mxCell>
        <mxCell id="ww80NGI2TLnyyEXgtIBK-42" value="" style="line;strokeWidth=1;fillColor=none;align=left;verticalAlign=middle;spacingTop=-1;spacingLeft=3;spacingRight=3;rotatable=0;labelPosition=right;points=[];portConstraint=eastwest;strokeColor=inherit;" parent="ww80NGI2TLnyyEXgtIBK-40" vertex="1">
          <mxGeometry y="110" width="280" height="8" as="geometry" />
        </mxCell>
        <mxCell id="ww80NGI2TLnyyEXgtIBK-43" value="&lt;i&gt;+ encode(char c): char = 0 &amp;lt;&amp;lt;virtual, const&amp;gt;&amp;gt;&lt;/i&gt;&lt;div&gt;&lt;i&gt;+ decode(char c): char = 0 &amp;lt;&amp;lt;virtual, const&amp;gt;&amp;gt;&lt;br&gt;&lt;/i&gt;&lt;/div&gt;&lt;div&gt;&lt;i&gt;+ clone(): Encryptor* = 0 &amp;lt;&amp;lt;virtual, const&amp;gt;&amp;gt;&lt;/i&gt;&lt;/div&gt;&lt;div&gt;&lt;i&gt;+ cloneInverse(): Encryptor* = 0 &amp;lt;&amp;lt;virtual, const&amp;gt;&amp;gt;&lt;/i&gt;&lt;/div&gt;&lt;div&gt;+ encode(const String&amp;amp; str): String &amp;lt;&amp;lt;const&amp;gt;&amp;gt;&lt;/div&gt;&lt;div&gt;+ decode(const String&amp;amp; str): String &amp;lt;&amp;lt;const&amp;gt;&amp;gt;&lt;/div&gt;&lt;div&gt;+ ~Encryptor &amp;lt;&amp;lt;virtual&amp;gt;&amp;gt;&lt;/div&gt;" style="text;strokeColor=none;fillColor=none;align=left;verticalAlign=top;spacingLeft=4;spacingRight=4;overflow=hidden;rotatable=0;points=[[0,0.5],[1,0.5]];portConstraint=eastwest;whiteSpace=wrap;html=1;" parent="ww80NGI2TLnyyEXgtIBK-40" vertex="1">
          <mxGeometry y="118" width="280" height="112" as="geometry" />
        </mxCell>
        <mxCell id="ww80NGI2TLnyyEXgtIBK-48" value="ShiftEncryptor" style="swimlane;fontStyle=1;align=center;verticalAlign=top;childLayout=stackLayout;horizontal=1;startSize=26;horizontalStack=0;resizeParent=1;resizeParentMax=0;resizeLast=0;collapsible=1;marginBottom=0;whiteSpace=wrap;html=1;" parent="1" vertex="1">
          <mxGeometry x="640" y="330" width="220" height="190" as="geometry" />
        </mxCell>
        <mxCell id="ww80NGI2TLnyyEXgtIBK-49" value="- shift: int" style="text;strokeColor=none;fillColor=none;align=left;verticalAlign=top;spacingLeft=4;spacingRight=4;overflow=hidden;rotatable=0;points=[[0,0.5],[1,0.5]];portConstraint=eastwest;whiteSpace=wrap;html=1;" parent="ww80NGI2TLnyyEXgtIBK-48" vertex="1">
          <mxGeometry y="26" width="220" height="26" as="geometry" />
        </mxCell>
        <mxCell id="ww80NGI2TLnyyEXgtIBK-50" value="" style="line;strokeWidth=1;fillColor=none;align=left;verticalAlign=middle;spacingTop=-1;spacingLeft=3;spacingRight=3;rotatable=0;labelPosition=right;points=[];portConstraint=eastwest;strokeColor=inherit;" parent="ww80NGI2TLnyyEXgtIBK-48" vertex="1">
          <mxGeometry y="52" width="220" height="8" as="geometry" />
        </mxCell>
        <mxCell id="ww80NGI2TLnyyEXgtIBK-51" value="&lt;div&gt;+ ShiftEncryptor(int shift = 0)&lt;/div&gt;&lt;div&gt;+ get_shift(): char &amp;lt;&amp;lt;const&amp;gt;&amp;gt;&lt;/div&gt;&lt;div&gt;+ set_shift(int shift): void&lt;/div&gt;&lt;div&gt;+ encode(char c): char &amp;lt;&amp;lt;const&amp;gt;&amp;gt;&lt;/div&gt;&lt;div&gt;+ decode(char c): char &amp;lt;&amp;lt;const&amp;gt;&amp;gt;&lt;/div&gt;&lt;div&gt;+ operator-(): ShiftEncryptor &amp;lt;&amp;lt;const&amp;gt;&amp;gt;&lt;/div&gt;&lt;div&gt;+ clone(): Encryptor* &amp;lt;&amp;lt;const&amp;gt;&amp;gt;&lt;/div&gt;&lt;div&gt;+ cloneInverse: Encryptor* &amp;lt;&amp;lt;const&amp;gt;&amp;gt;&lt;/div&gt;" style="text;strokeColor=none;fillColor=none;align=left;verticalAlign=top;spacingLeft=4;spacingRight=4;overflow=hidden;rotatable=0;points=[[0,0.5],[1,0.5]];portConstraint=eastwest;whiteSpace=wrap;html=1;" parent="ww80NGI2TLnyyEXgtIBK-48" vertex="1">
          <mxGeometry y="60" width="220" height="130" as="geometry" />
        </mxCell>
        <mxCell id="ww80NGI2TLnyyEXgtIBK-52" value="" style="endArrow=block;dashed=1;endFill=0;endSize=12;html=1;rounded=0;exitX=0.399;exitY=0.033;exitDx=0;exitDy=0;exitPerimeter=0;" parent="1" source="ww80NGI2TLnyyEXgtIBK-48" target="ww80NGI2TLnyyEXgtIBK-43" edge="1">
          <mxGeometry width="160" relative="1" as="geometry">
            <mxPoint x="310" y="548.6" as="sourcePoint" />
            <mxPoint x="470" y="548.6" as="targetPoint" />
          </mxGeometry>
        </mxCell>
        <mxCell id="ww80NGI2TLnyyEXgtIBK-53" value="RandEncryptor" style="swimlane;fontStyle=1;align=center;verticalAlign=top;childLayout=stackLayout;horizontal=1;startSize=26;horizontalStack=0;resizeParent=1;resizeParentMax=0;resizeLast=0;collapsible=1;marginBottom=0;whiteSpace=wrap;html=1;" parent="1" vertex="1">
          <mxGeometry x="450" y="620" width="330" height="240" as="geometry" />
        </mxCell>
        <mxCell id="ww80NGI2TLnyyEXgtIBK-54" value="- encodeMap: char*&lt;div&gt;- decodeMap: char*&lt;/div&gt;&lt;div&gt;- invert(): void&lt;/div&gt;&lt;div&gt;&lt;u&gt;- shuffle(char* array, size_t size): void&lt;/u&gt;&lt;/div&gt;" style="text;strokeColor=none;fillColor=none;align=left;verticalAlign=top;spacingLeft=4;spacingRight=4;overflow=hidden;rotatable=0;points=[[0,0.5],[1,0.5]];portConstraint=eastwest;whiteSpace=wrap;html=1;" parent="ww80NGI2TLnyyEXgtIBK-53" vertex="1">
          <mxGeometry y="26" width="330" height="64" as="geometry" />
        </mxCell>
        <mxCell id="ww80NGI2TLnyyEXgtIBK-55" value="" style="line;strokeWidth=1;fillColor=none;align=left;verticalAlign=middle;spacingTop=-1;spacingLeft=3;spacingRight=3;rotatable=0;labelPosition=right;points=[];portConstraint=eastwest;strokeColor=inherit;" parent="ww80NGI2TLnyyEXgtIBK-53" vertex="1">
          <mxGeometry y="90" width="330" height="8" as="geometry" />
        </mxCell>
        <mxCell id="ww80NGI2TLnyyEXgtIBK-56" value="+ RandEncryptor()&lt;div&gt;+ RandEncryptor(const RandEncryptor&amp;amp; rhs)&lt;/div&gt;&lt;div&gt;+ ~RandEncryptor()&lt;/div&gt;&lt;div&gt;+ operator=(const RandEncryptor&amp;amp; rhs): RandEncryptor&amp;amp;&lt;/div&gt;&lt;div&gt;+ encode(char c): char &amp;lt;&amp;lt;const&amp;gt;&amp;gt;&lt;/div&gt;&lt;div&gt;+ decode(char c): char &amp;lt;&amp;lt;const&amp;gt;&amp;gt;&lt;/div&gt;&lt;div&gt;+ clone(): Encryptor* &amp;lt;&amp;lt;const&amp;gt;&amp;gt;&lt;/div&gt;&lt;div&gt;+ cloneInverse(): Encryptor* &amp;lt;&amp;lt;const&amp;gt;&amp;gt;&lt;/div&gt;&lt;div&gt;+ operator-(): RandEncryptor &amp;lt;&amp;lt;const&amp;gt;&amp;gt;&lt;/div&gt;" style="text;strokeColor=none;fillColor=none;align=left;verticalAlign=top;spacingLeft=4;spacingRight=4;overflow=hidden;rotatable=0;points=[[0,0.5],[1,0.5]];portConstraint=eastwest;whiteSpace=wrap;html=1;" parent="ww80NGI2TLnyyEXgtIBK-53" vertex="1">
          <mxGeometry y="98" width="330" height="142" as="geometry" />
        </mxCell>
        <mxCell id="ww80NGI2TLnyyEXgtIBK-57" value="" style="endArrow=block;dashed=1;endFill=0;endSize=12;html=1;rounded=0;" parent="1" source="ww80NGI2TLnyyEXgtIBK-53" target="ww80NGI2TLnyyEXgtIBK-40" edge="1">
          <mxGeometry width="160" relative="1" as="geometry">
            <mxPoint x="480" y="596" as="sourcePoint" />
            <mxPoint x="640" y="596" as="targetPoint" />
          </mxGeometry>
        </mxCell>
        <mxCell id="ww80NGI2TLnyyEXgtIBK-58" value="EncryptorList" style="swimlane;fontStyle=1;align=center;verticalAlign=top;childLayout=stackLayout;horizontal=1;startSize=26;horizontalStack=0;resizeParent=1;resizeParentMax=0;resizeLast=0;collapsible=1;marginBottom=0;whiteSpace=wrap;html=1;" parent="1" vertex="1">
          <mxGeometry x="90" y="30" width="320" height="360" as="geometry" />
        </mxCell>
        <mxCell id="ww80NGI2TLnyyEXgtIBK-59" value="- head: Node*&lt;div&gt;- tail: Node*&lt;/div&gt;" style="text;strokeColor=none;fillColor=none;align=left;verticalAlign=top;spacingLeft=4;spacingRight=4;overflow=hidden;rotatable=0;points=[[0,0.5],[1,0.5]];portConstraint=eastwest;whiteSpace=wrap;html=1;" parent="ww80NGI2TLnyyEXgtIBK-58" vertex="1">
          <mxGeometry y="26" width="320" height="34" as="geometry" />
        </mxCell>
        <mxCell id="ww80NGI2TLnyyEXgtIBK-60" value="" style="line;strokeWidth=1;fillColor=none;align=left;verticalAlign=middle;spacingTop=-1;spacingLeft=3;spacingRight=3;rotatable=0;labelPosition=right;points=[];portConstraint=eastwest;strokeColor=inherit;" parent="ww80NGI2TLnyyEXgtIBK-58" vertex="1">
          <mxGeometry y="60" width="320" height="8" as="geometry" />
        </mxCell>
        <mxCell id="ww80NGI2TLnyyEXgtIBK-61" value="+ EncryptorList()&lt;div&gt;+ EncryptorList(const EncryptorList&amp;amp; other)&lt;/div&gt;&lt;div&gt;+ ~EncryptorList()&lt;/div&gt;&lt;div&gt;+ operator=(const EncryptorList&amp;amp; other): EncryptorList&amp;amp;&lt;/div&gt;&lt;div&gt;+ begin(): iterator &amp;lt;&amp;lt;const&amp;gt;&amp;gt;&lt;/div&gt;&lt;div&gt;+ end(): iterator &amp;lt;&amp;lt;const&amp;gt;&amp;gt;&lt;/div&gt;&lt;div&gt;+ rBegin(): iterator &amp;lt;&amp;lt;const&amp;gt;&amp;gt;&lt;/div&gt;&lt;div&gt;+ rEnd(): iterator &amp;lt;&amp;lt;const&amp;gt;&amp;gt;&lt;/div&gt;&lt;div&gt;+ append(const Encryptor&amp;amp; encr): void&lt;/div&gt;&lt;div&gt;+ append(Encryptor* pEncr): void&lt;/div&gt;&lt;div&gt;+ clone(): Encryptor* &amp;lt;&amp;lt;const&amp;gt;&amp;gt;&lt;/div&gt;&lt;div&gt;+ cloneInverse(): Encryptor* &amp;lt;&amp;lt;const&amp;gt;&amp;gt;&lt;/div&gt;&lt;div&gt;+ encode(char c): char &amp;lt;&amp;lt;const&amp;gt;&amp;gt;&lt;/div&gt;&lt;div&gt;+ decode(char c): char &amp;lt;&amp;lt;const&amp;gt;&amp;gt;&lt;/div&gt;&lt;div&gt;+ operator+=(const Encryptor&amp;amp; rhs): EncryptorList&amp;amp;&lt;/div&gt;&lt;div&gt;+ operator-=(const Encryptor&amp;amp; rhs): EncryptorList&amp;amp;&lt;/div&gt;&lt;div&gt;+ operator+=(Encryptor* rhs): EncryptorList&amp;amp;&lt;/div&gt;&lt;div&gt;+ operator-=(Encryptor* rhs): EncryptorList&amp;amp;&lt;/div&gt;&lt;div&gt;+ operator-(): EncryptorList &amp;lt;&amp;lt;const&amp;gt;&amp;gt;&lt;/div&gt;" style="text;strokeColor=none;fillColor=none;align=left;verticalAlign=top;spacingLeft=4;spacingRight=4;overflow=hidden;rotatable=0;points=[[0,0.5],[1,0.5]];portConstraint=eastwest;whiteSpace=wrap;html=1;" parent="ww80NGI2TLnyyEXgtIBK-58" vertex="1">
          <mxGeometry y="68" width="320" height="292" as="geometry" />
        </mxCell>
        <mxCell id="ww80NGI2TLnyyEXgtIBK-62" value="" style="endArrow=block;dashed=1;endFill=0;endSize=12;html=1;rounded=0;" parent="1" source="ww80NGI2TLnyyEXgtIBK-58" target="ww80NGI2TLnyyEXgtIBK-40" edge="1">
          <mxGeometry width="160" relative="1" as="geometry">
            <mxPoint x="330" y="570" as="sourcePoint" />
            <mxPoint x="490" y="570" as="targetPoint" />
          </mxGeometry>
        </mxCell>
        <mxCell id="ww80NGI2TLnyyEXgtIBK-66" value="" style="endArrow=none;html=1;edgeStyle=orthogonalEdgeStyle;rounded=0;" parent="1" source="ww80NGI2TLnyyEXgtIBK-40" target="ww80NGI2TLnyyEXgtIBK-35" edge="1">
          <mxGeometry relative="1" as="geometry">
            <mxPoint x="610" y="770" as="sourcePoint" />
            <mxPoint x="770" y="770" as="targetPoint" />
            <Array as="points">
              <mxPoint x="940" y="190" />
            </Array>
          </mxGeometry>
        </mxCell>
        <mxCell id="ww80NGI2TLnyyEXgtIBK-67" value="encrypts" style="edgeLabel;resizable=0;html=1;align=left;verticalAlign=bottom;" parent="ww80NGI2TLnyyEXgtIBK-66" connectable="0" vertex="1">
          <mxGeometry x="-1" relative="1" as="geometry">
            <mxPoint x="2" y="-1" as="offset" />
          </mxGeometry>
        </mxCell>
        <mxCell id="ww80NGI2TLnyyEXgtIBK-68" value="is encrypted by" style="edgeLabel;resizable=0;html=1;align=right;verticalAlign=bottom;" parent="ww80NGI2TLnyyEXgtIBK-66" connectable="0" vertex="1">
          <mxGeometry x="1" relative="1" as="geometry">
            <mxPoint x="-4" y="-2" as="offset" />
          </mxGeometry>
        </mxCell>
        <mxCell id="ww80NGI2TLnyyEXgtIBK-69" value="EncryptorList::iterator" style="swimlane;fontStyle=1;align=center;verticalAlign=top;childLayout=stackLayout;horizontal=1;startSize=26;horizontalStack=0;resizeParent=1;resizeParentMax=0;resizeLast=0;collapsible=1;marginBottom=0;whiteSpace=wrap;html=1;" parent="1" vertex="1">
          <mxGeometry x="90" y="450" width="240" height="220" as="geometry" />
        </mxCell>
        <mxCell id="ww80NGI2TLnyyEXgtIBK-70" value="- current: Node*" style="text;strokeColor=none;fillColor=none;align=left;verticalAlign=top;spacingLeft=4;spacingRight=4;overflow=hidden;rotatable=0;points=[[0,0.5],[1,0.5]];portConstraint=eastwest;whiteSpace=wrap;html=1;" parent="ww80NGI2TLnyyEXgtIBK-69" vertex="1">
          <mxGeometry y="26" width="240" height="26" as="geometry" />
        </mxCell>
        <mxCell id="ww80NGI2TLnyyEXgtIBK-71" value="" style="line;strokeWidth=1;fillColor=none;align=left;verticalAlign=middle;spacingTop=-1;spacingLeft=3;spacingRight=3;rotatable=0;labelPosition=right;points=[];portConstraint=eastwest;strokeColor=inherit;" parent="ww80NGI2TLnyyEXgtIBK-69" vertex="1">
          <mxGeometry y="52" width="240" height="8" as="geometry" />
        </mxCell>
        <mxCell id="ww80NGI2TLnyyEXgtIBK-72" value="+ iterator(Node* current = nullptr)&lt;div&gt;+ operator++(): iterator&amp;amp;&lt;/div&gt;&lt;div&gt;+ operator--(): iterator&amp;amp;&lt;/div&gt;&lt;div&gt;+ operator++(int): iterator&lt;/div&gt;&lt;div&gt;+ operator--(int): iterator&lt;/div&gt;&lt;div&gt;+ operator*(): Encryptor*&lt;/div&gt;&lt;div&gt;+ operator-&amp;gt;(): Encryptor**&lt;/div&gt;&lt;div&gt;+ operator==(iterator rhs): bool &amp;lt;&amp;lt;const&amp;gt;&amp;gt;&lt;/div&gt;&lt;div&gt;+ operator!=(iterator rhs): bool &amp;lt;&amp;lt;const&amp;gt;&amp;gt;&lt;/div&gt;" style="text;strokeColor=none;fillColor=none;align=left;verticalAlign=top;spacingLeft=4;spacingRight=4;overflow=hidden;rotatable=0;points=[[0,0.5],[1,0.5]];portConstraint=eastwest;whiteSpace=wrap;html=1;" parent="ww80NGI2TLnyyEXgtIBK-69" vertex="1">
          <mxGeometry y="60" width="240" height="160" as="geometry" />
        </mxCell>
        <mxCell id="ww80NGI2TLnyyEXgtIBK-73" value="EncryptorList::Node" style="swimlane;fontStyle=1;align=center;verticalAlign=top;childLayout=stackLayout;horizontal=1;startSize=26;horizontalStack=0;resizeParent=1;resizeParentMax=0;resizeLast=0;collapsible=1;marginBottom=0;whiteSpace=wrap;html=1;" parent="1" vertex="1">
          <mxGeometry x="400" y="460" width="160" height="130" as="geometry" />
        </mxCell>
        <mxCell id="ww80NGI2TLnyyEXgtIBK-74" value="+ pEncr: Encryptor*&lt;div&gt;+ next: Node*&lt;/div&gt;&lt;div&gt;+ prev: Node*&lt;/div&gt;&lt;div&gt;&lt;br&gt;&lt;/div&gt;" style="text;strokeColor=none;fillColor=none;align=left;verticalAlign=top;spacingLeft=4;spacingRight=4;overflow=hidden;rotatable=0;points=[[0,0.5],[1,0.5]];portConstraint=eastwest;whiteSpace=wrap;html=1;" parent="ww80NGI2TLnyyEXgtIBK-73" vertex="1">
          <mxGeometry y="26" width="160" height="54" as="geometry" />
        </mxCell>
        <mxCell id="ww80NGI2TLnyyEXgtIBK-75" value="" style="line;strokeWidth=1;fillColor=none;align=left;verticalAlign=middle;spacingTop=-1;spacingLeft=3;spacingRight=3;rotatable=0;labelPosition=right;points=[];portConstraint=eastwest;strokeColor=inherit;" parent="ww80NGI2TLnyyEXgtIBK-73" vertex="1">
          <mxGeometry y="80" width="160" height="8" as="geometry" />
        </mxCell>
        <mxCell id="ww80NGI2TLnyyEXgtIBK-76" value="+ Node(Encryptor* pEncr)&lt;div&gt;+ ~Node()&lt;/div&gt;" style="text;strokeColor=none;fillColor=none;align=left;verticalAlign=top;spacingLeft=4;spacingRight=4;overflow=hidden;rotatable=0;points=[[0,0.5],[1,0.5]];portConstraint=eastwest;whiteSpace=wrap;html=1;" parent="ww80NGI2TLnyyEXgtIBK-73" vertex="1">
          <mxGeometry y="88" width="160" height="42" as="geometry" />
        </mxCell>
        <mxCell id="ww80NGI2TLnyyEXgtIBK-77" value="" style="endArrow=open;startArrow=circlePlus;endFill=0;startFill=0;endSize=8;html=1;rounded=0;" parent="1" source="ww80NGI2TLnyyEXgtIBK-73" target="ww80NGI2TLnyyEXgtIBK-58" edge="1">
          <mxGeometry width="160" relative="1" as="geometry">
            <mxPoint x="680" y="800" as="sourcePoint" />
            <mxPoint x="840" y="800" as="targetPoint" />
          </mxGeometry>
        </mxCell>
        <mxCell id="ww80NGI2TLnyyEXgtIBK-78" value="" style="endArrow=open;startArrow=circlePlus;endFill=0;startFill=0;endSize=8;html=1;rounded=0;" parent="1" source="ww80NGI2TLnyyEXgtIBK-69" target="ww80NGI2TLnyyEXgtIBK-58" edge="1">
          <mxGeometry width="160" relative="1" as="geometry">
            <mxPoint x="680" y="800" as="sourcePoint" />
            <mxPoint x="840" y="800" as="targetPoint" />
          </mxGeometry>
        </mxCell>
        <mxCell id="ww80NGI2TLnyyEXgtIBK-79" value="" style="endArrow=diamondThin;endFill=1;endSize=24;html=1;rounded=0;exitX=0.75;exitY=0;exitDx=0;exitDy=0;" parent="1" edge="1" target="ww80NGI2TLnyyEXgtIBK-61" source="ww80NGI2TLnyyEXgtIBK-73">
          <mxGeometry width="160" relative="1" as="geometry">
            <mxPoint x="680" y="690" as="sourcePoint" />
            <mxPoint x="620" y="708" as="targetPoint" />
          </mxGeometry>
        </mxCell>
        <mxCell id="DiXvYo8uf19-jXLgNr0C-1" value="" style="endArrow=diamondThin;endFill=0;endSize=24;html=1;rounded=0;" parent="1" source="ww80NGI2TLnyyEXgtIBK-32" target="ww80NGI2TLnyyEXgtIBK-35" edge="1">
          <mxGeometry width="160" relative="1" as="geometry">
            <mxPoint x="1120" y="720" as="sourcePoint" />
            <mxPoint x="1280" y="720" as="targetPoint" />
          </mxGeometry>
        </mxCell>
      </root>
    </mxGraphModel>
  </diagram>
</mxfile>
